<svg width="201" height="18" viewBox="0 0 201 18" fill="none" xmlns="http://www.w3.org/2000/svg">
<path d="M0.78125 3.78906V1H13.9219V3.78906H9.02344V17H5.67969V3.78906H0.78125ZM14.7773 17V5H18.0039V7.09375H18.1289C18.3477 6.34896 18.7148 5.78646 19.2305 5.40625C19.7461 5.02083 20.3398 4.82812 21.0117 4.82812C21.1784 4.82812 21.3581 4.83854 21.5508 4.85937C21.7435 4.88021 21.9128 4.90885 22.0586 4.94531V7.89844C21.9023 7.85156 21.6862 7.8099 21.4102 7.77344C21.1341 7.73698 20.8815 7.71875 20.6523 7.71875C20.1628 7.71875 19.7253 7.82552 19.3398 8.03906C18.9596 8.2474 18.6576 8.53906 18.4336 8.91406C18.2148 9.28906 18.1055 9.72135 18.1055 10.2109V17H14.7773ZM26.8574 17.2266C26.0918 17.2266 25.4095 17.0938 24.8105 16.8281C24.2116 16.5573 23.7376 16.1589 23.3887 15.6328C23.0449 15.1016 22.873 14.4401 22.873 13.6484C22.873 12.9818 22.9954 12.4219 23.2402 11.9687C23.485 11.5156 23.8184 11.151 24.2402 10.875C24.6621 10.599 25.1413 10.3906 25.6777 10.25C26.2194 10.1094 26.7871 10.0104 27.3809 9.95312C28.0788 9.88021 28.6413 9.8125 29.0684 9.75C29.4954 9.68229 29.8053 9.58333 29.998 9.45312C30.1908 9.32292 30.2871 9.13021 30.2871 8.875V8.82812C30.2871 8.33333 30.1309 7.95052 29.8184 7.67969C29.5111 7.40885 29.0736 7.27344 28.5059 7.27344C27.9069 7.27344 27.4303 7.40625 27.0762 7.67187C26.722 7.93229 26.4876 8.26042 26.373 8.65625L23.2949 8.40625C23.4512 7.67708 23.7585 7.04687 24.2168 6.51562C24.6751 5.97917 25.2663 5.56771 25.9902 5.28125C26.7194 4.98958 27.5632 4.84375 28.5215 4.84375C29.1882 4.84375 29.8262 4.92187 30.4355 5.07812C31.0501 5.23437 31.5944 5.47656 32.0684 5.80469C32.5475 6.13281 32.9251 6.55469 33.2012 7.07031C33.4772 7.58073 33.6152 8.19271 33.6152 8.90625V17H30.459V15.3359H30.3652C30.1725 15.7109 29.9147 16.0417 29.5918 16.3281C29.2689 16.6094 28.8809 16.8307 28.4277 16.9922C27.9746 17.1484 27.4512 17.2266 26.8574 17.2266ZM27.8105 14.9297C28.3001 14.9297 28.7324 14.8333 29.1074 14.6406C29.4824 14.4427 29.7767 14.1771 29.9902 13.8438C30.2038 13.5104 30.3105 13.1328 30.3105 12.7109V11.4375C30.2064 11.5052 30.0632 11.5677 29.8809 11.625C29.7038 11.6771 29.5033 11.7266 29.2793 11.7734C29.0553 11.8151 28.8314 11.8542 28.6074 11.8906C28.3835 11.9219 28.1803 11.9505 27.998 11.9766C27.6074 12.0339 27.2663 12.125 26.9746 12.25C26.6829 12.375 26.4564 12.5443 26.2949 12.7578C26.1335 12.9661 26.0527 13.2266 26.0527 13.5391C26.0527 13.9922 26.2168 14.3385 26.5449 14.5781C26.8783 14.8125 27.3001 14.9297 27.8105 14.9297ZM36.1973 17V5H39.5254V17H36.1973ZM37.8691 3.45312C37.3743 3.45312 36.9499 3.28906 36.5957 2.96094C36.2467 2.6276 36.0723 2.22917 36.0723 1.76562C36.0723 1.30729 36.2467 0.914062 36.5957 0.585938C36.9499 0.252604 37.3743 0.0859367 37.8691 0.0859367C38.3639 0.0859367 38.7858 0.252604 39.1348 0.585938C39.4889 0.914062 39.666 1.30729 39.666 1.76562C39.666 2.22917 39.4889 2.6276 39.1348 2.96094C38.7858 3.28906 38.3639 3.45312 37.8691 3.45312ZM45.5195 10.0625V17H42.1914V5H45.3633V7.11719H45.5039C45.7695 6.41927 46.2148 5.86719 46.8398 5.46094C47.4648 5.04948 48.2227 4.84375 49.1133 4.84375C49.9466 4.84375 50.6732 5.02604 51.293 5.39062C51.9128 5.75521 52.3945 6.27604 52.7383 6.95312C53.082 7.625 53.2539 8.42708 53.2539 9.35937V17H49.9258V9.95312C49.931 9.21875 49.7435 8.64583 49.3633 8.23438C48.9831 7.81771 48.4596 7.60937 47.793 7.60937C47.3451 7.60937 46.9492 7.70573 46.6055 7.89844C46.2669 8.09115 46.0013 8.3724 45.8086 8.74219C45.6211 9.10677 45.5247 9.54688 45.5195 10.0625ZM63.3359 17L60.0703 5H63.4375L65.2969 13.0625H65.4063L67.3438 5H70.6484L72.6172 13.0156H72.7188L74.5469 5H77.9063L74.6484 17H71.125L69.0625 9.45312H68.9141L66.8516 17H63.3359ZM79.6816 17V5H83.0098V17H79.6816ZM81.3535 3.45312C80.8587 3.45312 80.4342 3.28906 80.0801 2.96094C79.7311 2.6276 79.5566 2.22917 79.5566 1.76562C79.5566 1.30729 79.7311 0.914062 80.0801 0.585938C80.4342 0.252604 80.8587 0.0859367 81.3535 0.0859367C81.8483 0.0859367 82.2702 0.252604 82.6191 0.585938C82.9733 0.914062 83.1504 1.30729 83.1504 1.76562C83.1504 2.22917 82.9733 2.6276 82.6191 2.96094C82.2702 3.28906 81.8483 3.45312 81.3535 3.45312ZM92.0586 5V7.5H84.832V5H92.0586ZM86.4727 2.125H89.8008V13.3125C89.8008 13.6198 89.8477 13.8594 89.9414 14.0312C90.0352 14.1979 90.1654 14.3151 90.332 14.3828C90.5039 14.4505 90.7018 14.4844 90.9258 14.4844C91.082 14.4844 91.2383 14.4714 91.3945 14.4453C91.5508 14.4141 91.6706 14.3906 91.7539 14.375L92.2773 16.8516C92.1107 16.9036 91.8763 16.9635 91.5742 17.0313C91.2721 17.1042 90.9049 17.1484 90.4727 17.1641C89.6706 17.1953 88.9674 17.0885 88.3633 16.8437C87.7643 16.599 87.2982 16.2187 86.9648 15.7031C86.6315 15.1875 86.4674 14.5365 86.4727 13.75V2.125ZM97.8125 10.0625V17H94.4844V1H97.7188V7.11719H97.8594C98.1302 6.40885 98.5677 5.85417 99.1719 5.45312C99.776 5.04687 100.534 4.84375 101.445 4.84375C102.279 4.84375 103.005 5.02604 103.625 5.39062C104.25 5.75 104.734 6.26823 105.078 6.94531C105.427 7.61719 105.599 8.42187 105.594 9.35937V17H102.266V9.95312C102.271 9.21354 102.083 8.63802 101.703 8.22656C101.328 7.8151 100.802 7.60937 100.125 7.60937C99.6719 7.60937 99.2708 7.70573 98.9219 7.89844C98.5781 8.09115 98.3073 8.3724 98.1094 8.74219C97.9167 9.10677 97.8177 9.54688 97.8125 10.0625ZM112.758 3.78906V1H125.898V3.78906H121V17H117.656V3.78906H112.758ZM129.789 17.2266C129.023 17.2266 128.341 17.0938 127.742 16.8281C127.143 16.5573 126.669 16.1589 126.32 15.6328C125.977 15.1016 125.805 14.4401 125.805 13.6484C125.805 12.9818 125.927 12.4219 126.172 11.9687C126.417 11.5156 126.75 11.151 127.172 10.875C127.594 10.599 128.073 10.3906 128.609 10.25C129.151 10.1094 129.719 10.0104 130.313 9.95312C131.01 9.88021 131.573 9.8125 132 9.75C132.427 9.68229 132.737 9.58333 132.93 9.45312C133.122 9.32292 133.219 9.13021 133.219 8.875V8.82812C133.219 8.33333 133.063 7.95052 132.75 7.67969C132.443 7.40885 132.005 7.27344 131.437 7.27344C130.839 7.27344 130.362 7.40625 130.008 7.67187C129.654 7.93229 129.419 8.26042 129.305 8.65625L126.227 8.40625C126.383 7.67708 126.69 7.04687 127.148 6.51562C127.607 5.97917 128.198 5.56771 128.922 5.28125C129.651 4.98958 130.495 4.84375 131.453 4.84375C132.12 4.84375 132.758 4.92187 133.367 5.07812C133.982 5.23437 134.526 5.47656 135 5.80469C135.479 6.13281 135.857 6.55469 136.133 7.07031C136.409 7.58073 136.547 8.19271 136.547 8.90625V17H133.391V15.3359H133.297C133.104 15.7109 132.846 16.0417 132.523 16.3281C132.201 16.6094 131.812 16.8307 131.359 16.9922C130.906 17.1484 130.383 17.2266 129.789 17.2266ZM130.742 14.9297C131.232 14.9297 131.664 14.8333 132.039 14.6406C132.414 14.4427 132.708 14.1771 132.922 13.8438C133.135 13.5104 133.242 13.1328 133.242 12.7109V11.4375C133.138 11.5052 132.995 11.5677 132.813 11.625C132.635 11.6771 132.435 11.7266 132.211 11.7734C131.987 11.8151 131.763 11.8542 131.539 11.8906C131.315 11.9219 131.112 11.9505 130.93 11.9766C130.539 12.0339 130.198 12.125 129.906 12.25C129.615 12.375 129.388 12.5443 129.227 12.7578C129.065 12.9661 128.984 13.2266 128.984 13.5391C128.984 13.9922 129.148 14.3385 129.477 14.5781C129.81 14.8125 130.232 14.9297 130.742 14.9297ZM145.512 5V7.5H138.285V5H145.512ZM139.926 2.125H143.254V13.3125C143.254 13.6198 143.301 13.8594 143.395 14.0312C143.488 14.1979 143.618 14.3151 143.785 14.3828C143.957 14.4505 144.155 14.4844 144.379 14.4844C144.535 14.4844 144.691 14.4714 144.848 14.4453C145.004 14.4141 145.124 14.3906 145.207 14.375L145.73 16.8516C145.564 16.9036 145.329 16.9635 145.027 17.0313C144.725 17.1042 144.358 17.1484 143.926 17.1641C143.124 17.1953 142.421 17.0885 141.816 16.8437C141.217 16.599 140.751 16.2187 140.418 15.7031C140.085 15.1875 139.921 14.5365 139.926 13.75V2.125ZM151.102 17.2266C150.336 17.2266 149.654 17.0938 149.055 16.8281C148.456 16.5573 147.982 16.1589 147.633 15.6328C147.289 15.1016 147.117 14.4401 147.117 13.6484C147.117 12.9818 147.24 12.4219 147.484 11.9687C147.729 11.5156 148.063 11.151 148.484 10.875C148.906 10.599 149.385 10.3906 149.922 10.25C150.464 10.1094 151.031 10.0104 151.625 9.95312C152.323 9.88021 152.885 9.8125 153.312 9.75C153.74 9.68229 154.049 9.58333 154.242 9.45312C154.435 9.32292 154.531 9.13021 154.531 8.875V8.82812C154.531 8.33333 154.375 7.95052 154.062 7.67969C153.755 7.40885 153.318 7.27344 152.75 7.27344C152.151 7.27344 151.674 7.40625 151.32 7.67187C150.966 7.93229 150.732 8.26042 150.617 8.65625L147.539 8.40625C147.695 7.67708 148.003 7.04687 148.461 6.51562C148.919 5.97917 149.51 5.56771 150.234 5.28125C150.964 4.98958 151.807 4.84375 152.766 4.84375C153.432 4.84375 154.07 4.92187 154.68 5.07812C155.294 5.23437 155.839 5.47656 156.313 5.80469C156.792 6.13281 157.169 6.55469 157.445 7.07031C157.721 7.58073 157.859 8.19271 157.859 8.90625V17H154.703V15.3359H154.609C154.417 15.7109 154.159 16.0417 153.836 16.3281C153.513 16.6094 153.125 16.8307 152.672 16.9922C152.219 17.1484 151.695 17.2266 151.102 17.2266ZM152.055 14.9297C152.544 14.9297 152.977 14.8333 153.352 14.6406C153.727 14.4427 154.021 14.1771 154.234 13.8438C154.448 13.5104 154.555 13.1328 154.555 12.7109V11.4375C154.451 11.5052 154.307 11.5677 154.125 11.625C153.948 11.6771 153.747 11.7266 153.523 11.7734C153.299 11.8151 153.076 11.8542 152.852 11.8906C152.628 11.9219 152.424 11.9505 152.242 11.9766C151.852 12.0339 151.51 12.125 151.219 12.25C150.927 12.375 150.701 12.5443 150.539 12.7578C150.378 12.9661 150.297 13.2266 150.297 13.5391C150.297 13.9922 150.461 14.3385 150.789 14.5781C151.122 14.8125 151.544 14.9297 152.055 14.9297ZM166.176 17H160.504V1H166.223C167.832 1 169.217 1.32031 170.379 1.96094C171.54 2.59635 172.434 3.51042 173.059 4.70312C173.689 5.89583 174.004 7.32292 174.004 8.98437C174.004 10.651 173.689 12.0833 173.059 13.2812C172.434 14.4792 171.535 15.3984 170.363 16.0391C169.197 16.6797 167.801 17 166.176 17ZM163.887 14.1016H166.035C167.035 14.1016 167.876 13.9245 168.559 13.5703C169.246 13.2109 169.762 12.6562 170.105 11.9062C170.454 11.151 170.629 10.1771 170.629 8.98437C170.629 7.80208 170.454 6.83594 170.105 6.08594C169.762 5.33594 169.249 4.78385 168.566 4.42969C167.884 4.07552 167.043 3.89844 166.043 3.89844H163.887V14.1016ZM181.916 17.2344C180.682 17.2344 179.619 16.9844 178.729 16.4844C177.843 15.9792 177.161 15.2656 176.682 14.3437C176.202 13.4167 175.963 12.3203 175.963 11.0547C175.963 9.82031 176.202 8.73698 176.682 7.80469C177.161 6.8724 177.835 6.14583 178.705 5.625C179.58 5.10417 180.606 4.84375 181.783 4.84375C182.575 4.84375 183.312 4.97135 183.994 5.22656C184.682 5.47656 185.281 5.85417 185.791 6.35937C186.307 6.86458 186.708 7.5 186.994 8.26562C187.281 9.02604 187.424 9.91667 187.424 10.9375V11.8516H177.291V9.78906H184.291C184.291 9.3099 184.187 8.88542 183.979 8.51563C183.77 8.14583 183.481 7.85677 183.111 7.64844C182.747 7.4349 182.322 7.32812 181.838 7.32812C181.333 7.32812 180.885 7.44531 180.494 7.67969C180.109 7.90885 179.807 8.21875 179.588 8.60937C179.369 8.99479 179.257 9.42448 179.252 9.89844V11.8594C179.252 12.4531 179.361 12.9661 179.58 13.3984C179.804 13.8307 180.119 14.1641 180.525 14.3984C180.932 14.6328 181.413 14.75 181.971 14.75C182.34 14.75 182.679 14.6979 182.986 14.5938C183.294 14.4896 183.557 14.3333 183.775 14.125C183.994 13.9167 184.161 13.6615 184.275 13.3594L187.354 13.5625C187.197 14.3021 186.877 14.9479 186.393 15.5C185.913 16.0469 185.294 16.474 184.533 16.7813C183.778 17.0833 182.906 17.2344 181.916 17.2344ZM200.461 5L196.266 17H192.516L188.32 5H191.836L194.328 13.5859H194.453L196.938 5H200.461Z" fill="#89C5CC"/>
</svg>
